<svg version="1.1" id="Layer_1" xmlns="http://www.w3.org/2000/svg" xmlns:xlink="http://www.w3.org/1999/xlink" x="0px" y="0px"
	 width="100%" viewBox="0 0 1024 1024" enable-background="new 0 0 1024 1024" xml:space="preserve">
<path fill="#000000" opacity="1.000000" stroke="none" 
	d="
M515.396423,539.446594 
	C512.531799,533.294006 511.481842,527.047546 510.422424,520.819092 
	C509.410095,514.867676 510.299255,513.912354 516.651123,513.910645 
	C564.472534,513.897705 612.294006,513.903564 660.115417,513.900696 
	C668.113403,513.900208 676.116821,514.059998 684.107178,513.809204 
	C688.442993,513.673096 690.050415,515.237244 689.942383,519.586548 
	C689.268982,546.679077 682.924072,572.339905 670.214600,596.259949 
	C647.372253,639.250610 612.895874,668.896606 566.618835,684.134766 
	C542.007080,692.239075 516.598145,695.161804 490.722382,691.460144 
	C415.121063,680.645020 365.479340,638.387207 340.498840,566.723938 
	C335.277649,551.745544 333.410980,535.987610 332.707886,520.122070 
	C332.511414,515.688599 333.823395,513.808411 338.565796,513.860352 
	C355.559235,514.046814 372.559052,514.076965 389.550049,513.788391 
	C394.502319,513.704346 395.977814,515.810547 396.165314,520.197144 
	C397.108063,542.253662 404.114777,562.327026 416.804382,580.286072 
	C434.132599,604.809814 457.294891,621.221863 486.907867,627.068420 
	C534.517090,636.468018 573.394226,621.242737 603.764038,583.678345 
	C604.700195,582.520447 605.468445,581.217834 606.227417,579.931030 
	C606.457825,579.540344 606.393677,578.975769 606.465576,578.483215 
	C605.006042,576.412109 602.827148,577.070374 600.946594,577.055359 
	C591.283081,576.978394 581.597900,577.426941 571.958557,576.938110 
	C545.981018,575.620605 526.716125,563.776672 515.396423,539.446594 
z"/>
<path fill="#000000" opacity="1.000000" stroke="none" 
	d="
M419.000000,399.909698 
	C405.049103,399.557159 391.537018,400.950531 378.221893,397.479797 
	C353.579193,391.056427 334.611328,368.422913 332.839264,343.095123 
	C332.527130,338.634003 333.858765,336.768982 338.601868,336.777405 
	C398.433624,336.883820 458.348450,334.876404 518.075989,337.376251 
	C587.839111,340.296204 639.626404,374.553558 672.060486,436.937500 
	C673.636841,439.969452 675.750732,442.896637 675.861328,446.456360 
	C674.421631,448.370850 672.455872,447.919861 670.691650,447.923553 
	C650.858887,447.965271 631.025452,447.886688 611.193665,448.033569 
	C607.155823,448.063477 604.490662,446.671692 601.888550,443.529785 
	C577.801025,414.445343 546.975586,399.612366 508.997406,399.845551 
	C479.165924,400.028748 449.332550,399.900146 419.000000,399.909698 
z"/>
<path fill="#000000" opacity="1.000000" stroke="none" 
	d="
M395.233185,451.227234 
	C395.237152,460.683777 395.097168,469.670593 395.295319,478.649994 
	C395.382660,482.607544 394.264984,484.532440 389.968018,484.292023 
	C379.690094,483.716919 369.309723,485.380707 359.110535,483.379730 
	C344.670319,480.546692 333.630737,467.965271 332.891815,453.269867 
	C332.441223,444.308838 332.810455,435.306946 332.798584,426.323395 
	C332.795319,423.865631 333.554993,421.895782 336.377289,421.957428 
	C347.829285,422.207458 359.377197,420.591522 370.718140,422.670837 
	C385.258148,425.336639 394.136902,435.901367 395.233185,451.227234 
z"/>
</svg>